<?xml version="1.0" encoding="iso-8859-1"?>
<!-- Generator: Adobe Illustrator 19.0.0, SVG Export Plug-In . SVG Version: 6.00 Build 0)  -->
<svg version="1.1" id="Capa_1" xmlns="http://www.w3.org/2000/svg" xmlns:xlink="http://www.w3.org/1999/xlink" x="0px" y="0px"
	 viewBox="0 0 512 512" style="enable-background:new 0 0 512 512;" xml:space="preserve">
<g>
	<g>
		<path d="M471.071,200.775c8.994-12.467,11.755-28.087,7.575-42.855l-16.801-59.364c4.599-2.562,7.715-7.469,7.715-13.107
			c0-6.859-4.609-12.63-10.895-14.417l3.808-26.867c1.576-11.114-1.742-22.35-9.102-30.827C446.01,4.862,435.351,0,424.126,0H87.873
			C76.647,0,65.988,4.861,58.629,13.337c-7.36,8.477-10.677,19.712-9.102,30.827l3.808,26.867
			c-6.286,1.787-10.895,7.558-10.895,14.417c0,5.639,3.115,10.545,7.715,13.107l-16.801,59.364
			c-4.18,14.769-1.419,30.389,7.575,42.855c1.089,1.51,2.253,2.945,3.482,4.303c-10.433,97.714-9.176,196.426,3.779,293.899
			C49.179,506.431,55.537,512,63.058,512h385.883c7.521,0,13.878-5.569,14.869-13.023c12.955-97.473,14.212-196.185,3.779-293.899
			C468.819,203.719,469.981,202.285,471.071,200.775z M81.282,33.006C82.256,31.883,84.41,30,87.873,30h336.252
			c3.464,0,5.617,1.884,6.592,3.006c0.975,1.123,2.538,3.519,2.051,6.948l-4.25,29.987H83.48l-4.25-29.987
			C78.744,36.525,80.307,34.129,81.282,33.006z M435.73,482H76.268c-10.574-86.802-11.658-174.536-3.265-261.531
			c1.68,0.254,3.38,0.431,5.101,0.509c0.755,0.034,1.516,0.051,2.28,0.051c13.664,0,26.069-5.496,35.119-14.395
			c9.05,8.898,21.455,14.395,35.119,14.395s26.068-5.496,35.119-14.395c9.05,8.898,21.455,14.395,35.119,14.395
			c13.674,0,26.089-5.506,35.141-14.416c9.052,8.91,21.466,14.416,35.141,14.416c13.664,0,26.069-5.496,35.119-14.395
			c9.05,8.898,21.455,14.395,35.119,14.395s26.068-5.496,35.119-14.395c9.05,8.898,21.455,14.395,35.119,14.395
			c0.764,0,1.525-0.018,2.283-0.051c1.719-0.078,3.419-0.254,5.098-0.509C447.389,307.463,446.304,395.198,435.73,482z
			 M446.741,183.223c-1.99,2.758-6.48,7.438-14.192,7.785c-0.31,0.014-0.622,0.021-0.935,0.021
			c-11.056,0-20.057-8.964-20.119-19.917c0-0.045,0-0.088,0-0.134l0.017-0.563c0.102-4.042-1.455-7.955-4.278-10.85
			c-2.823-2.895-6.718-4.528-10.761-4.528c-4.04,0-7.908,1.629-10.73,4.519s-4.36,6.795-4.266,10.833l0.018,0.521
			c0,11.093-9.025,20.119-20.119,20.119c-11.054,0-20.054-8.961-20.119-19.904c0-0.047,0-0.095,0-0.142l0.018-0.594
			c0.095-4.038-1.465-7.944-4.287-10.833c-2.823-2.89-6.713-4.519-10.752-4.519s-7.908,1.629-10.73,4.519
			c-2.822,2.89-4.36,6.795-4.266,10.833l0.018,0.521c0,11.093-9.025,20.119-20.119,20.119c-11.073,0-20.085-8.992-20.12-19.961
			c0-0.028,0-0.056,0.001-0.083l0.018-0.595c0.095-4.038-1.465-7.944-4.288-10.833c-2.823-2.89-6.713-4.519-10.752-4.519
			c-0.015,0-0.029,0-0.044,0c-4.04,0-7.908,1.629-10.73,4.519c-2.822,2.89-4.36,6.795-4.266,10.833l0.018,0.521
			c0,11.093-9.025,20.119-20.119,20.119c-11.054,0-20.054-8.961-20.119-19.904c0-0.047,0-0.095,0-0.142l0.018-0.594
			c0.095-4.038-1.465-7.944-4.288-10.833c-2.823-2.89-6.713-4.519-10.752-4.519s-7.908,1.629-10.73,4.519
			c-2.822,2.89-4.36,6.795-4.265,10.833l0.018,0.521c0,11.093-9.025,20.119-20.119,20.119c-11.051,0-20.049-8.956-20.119-19.895
			c0-0.051,0-0.104,0-0.154l0.018-0.591c0.095-4.038-1.465-7.944-4.288-10.833c-2.823-2.89-6.713-4.519-10.752-4.519
			c-4.044,0-7.916,1.633-10.739,4.528s-4.358,6.807-4.256,10.85l0.017,0.496c0,11.093-9.025,20.119-20.119,20.119
			c-0.313,0-0.625-0.007-0.932-0.021c-7.714-0.348-12.205-5.027-14.194-7.785c-3.6-4.99-4.708-11.235-3.038-17.133l18.578-65.641
			h350.404l18.578,65.641C451.449,171.988,450.342,178.232,446.741,183.223z"/>
	</g>
</g>
<g>
	<g>
		<path d="M373.622,293.02h-39.323c-17.021-23.166-44.401-37.243-73.389-37.243c-28.988,0-56.369,14.077-73.389,37.243h-39.322
			c-8.284,0-15,6.716-15,15v77.446c0,8.284,6.716,15,15,15h39.322c17.021,23.166,44.401,37.243,73.389,37.243
			c28.988,0,56.369-14.077,73.389-37.243h39.322c8.284,0,15-6.716,15-15V308.02C388.622,299.735,381.907,293.02,373.622,293.02z
			 M326.262,370.466c-5.293,0-10.195,2.79-12.897,7.342c-10.952,18.443-31.052,29.901-52.454,29.901
			c-21.402,0-41.502-11.458-52.455-29.902c-2.703-4.551-7.604-7.341-12.897-7.341h-32.36V323.02h32.359
			c5.293,0,10.195-2.79,12.897-7.341c10.953-18.444,31.052-29.902,52.455-29.902s41.502,11.458,52.454,29.901
			c2.703,4.552,7.604,7.342,12.897,7.342h32.36v47.446H326.262z"/>
	</g>
</g>
<g>
</g>
<g>
</g>
<g>
</g>
<g>
</g>
<g>
</g>
<g>
</g>
<g>
</g>
<g>
</g>
<g>
</g>
<g>
</g>
<g>
</g>
<g>
</g>
<g>
</g>
<g>
</g>
<g>
</g>
</svg>
