<svg id="Capa_1" enable-background="new 0 0 511.787 511.787" height="512" viewBox="0 0 511.787 511.787" width="512" xmlns="http://www.w3.org/2000/svg"><g><path d="m226.083 62.56h14.348v71.993c5.278 2.269 10.448 4.902 15.464 7.906 4.723-2.828 9.58-5.332 14.537-7.509v-72.39h14.347c8.284 0 15-6.716 15-15s-6.716-15-15-15h-14.347v-17.519c0-8.284-6.716-15-15-15s-15 6.716-15 15v17.519h-14.348c-8.284 0-15 6.716-15 15s6.715 15 14.999 15z"/><g><g><g><path d="m121.469 406.499h18.531c-22.737-44.432-40.037-90.608-47.422-110.322-1.095-2.923-1.967-5.255-2.603-6.893-13.009-33.55-12.226-70.391 2.148-101.078 13.025-27.808 35.92-48.416 64.469-58.029 1.537-.518 3.085-.988 4.639-1.435-28.514-15.502-60.871-18.859-89.874-9.093-26.767 9.014-48.257 28.385-60.51 54.545-13.772 29.402-14.46 64.865-1.886 97.294.685 1.767 1.611 4.234 2.764 7.305 10.239 27.266 35.917 95.634 69.301 150.361 8.36-13.58 23.36-22.655 40.443-22.655z"/><path d="m500.942 174.194c-12.254-26.16-33.743-45.531-60.511-54.545-28.627-9.639-60.895-6.255-89.613 9.169 1.466.426 2.927.871 4.378 1.36 28.549 9.613 51.443 30.221 64.469 58.027 14.374 30.687 15.157 67.529 2.148 101.079-.569 1.471-1.331 3.49-2.271 5.985-7.543 19.999-25.173 66.744-48.616 111.23h19.393c16.765 0 31.517 8.746 39.963 21.906 34.148-56.173 61.087-126.866 70.518-151.62.82-2.153 1.499-3.935 2.027-5.298 12.574-32.428 11.886-67.89-1.885-97.293z"/></g><path d="m173.375 406.499h163.943c29.257-51.986 51.12-113.125 56.524-127.061 19.622-50.605-1.967-104.255-48.22-119.83-30.762-10.359-64.683-1.261-89.728 20.88-25.046-22.141-58.966-31.238-89.729-20.88-46.253 15.575-67.841 69.224-48.219 119.83 5.336 13.762 26.722 74.234 55.429 127.061z"/></g><path d="m421.452 481.746h-13.671v-27.785c0-9.644-7.818-17.462-17.462-17.462h-268.85c-9.644 0-17.462 7.818-17.462 17.462v27.785h-13.671c-8.284 0-15 6.716-15 15s6.716 15 15 15h331.116c8.284 0 15-6.716 15-15s-6.716-15-15-15z"/></g></g></svg>