<svg id="Layer_1" enable-background="new 0 0 511.965 511.965" height="512" viewBox="0 0 511.965 511.965" width="512" xmlns="http://www.w3.org/2000/svg"><g><path d="m476.457 67.976-117.737-67.976-102.738 59.315-102.737-59.315-117.737 67.976v135.951l102.737 59.315v118.629l60.496 34.928c7.55 4.358 12.239 12.481 12.239 21.2v28.964c0 24.814 20.188 45.002 45.002 45.002s45.002-20.188 45.002-45.002v-28.964c0-8.719 4.689-16.842 12.239-21.2l60.496-34.928v-118.629l102.737-59.315v-135.951zm-410.949 17.32 87.737-50.655 87.737 50.655v101.309l-87.739 50.656-87.736-50.654v-101.311zm232.716 305.522c-16.802 9.699-27.239 27.778-27.239 47.181v28.964c0 8.272-6.729 15.002-15.002 15.002s-15.002-6.729-15.002-15.002v-28.964c0-19.402-10.438-37.481-27.239-47.181l-45.496-26.268v-101.308l87.737-50.655 87.737 50.655v101.309zm148.233-204.212-87.736 50.654-87.739-50.656v-101.308l87.737-50.655 87.737 50.655v101.31z"/><path d="m302.122 103.274v65.353l56.598 32.677 56.598-32.677v-65.353l-56.598-32.676zm83.195 48.033-26.598 15.356-26.598-15.356v-30.712l26.598-15.356 26.598 15.356z"/><path d="m199.385 281.22v65.353l56.598 32.677 56.598-32.677v-65.353l-56.598-32.677zm83.195 48.032-26.598 15.356-26.598-15.356v-30.712l26.598-15.356 26.598 15.356z"/><path d="m209.843 168.627v-65.353l-56.598-32.677-56.598 32.677v65.353l56.598 32.677zm-83.196-48.032 26.598-15.356 26.598 15.356v30.712l-26.598 15.356-26.598-15.356z"/></g></svg>