<svg id="Capa_1" enable-background="new 0 0 512 512" height="512" viewBox="0 0 512 512" width="512" xmlns="http://www.w3.org/2000/svg"><g><circle cx="256.011" cy="271.378" r="15.062"/><path d="m509.367 199.42-6.092-18.746c-4.433-13.644-13.913-24.744-26.694-31.257-8.194-4.175-17.118-6.149-26.059-5.852l-1.867-5.745c-6.794-20.91-24.504-36.036-46.219-39.476-7.147-1.132-14.27-.918-21.075.502-.752-6.912-2.749-13.754-6.035-20.202-9.981-19.59-29.84-31.759-51.825-31.759h-6.062c-6.506-22.337-27.163-38.704-51.572-38.704h-19.712c-24.409 0-45.066 16.367-51.572 38.704h-6.062c-21.985 0-41.844 12.169-51.825 31.758-3.286 6.448-5.283 13.291-6.035 20.202-6.805-1.42-13.928-1.634-21.076-.502-21.715 3.44-39.425 18.566-46.218 39.476l-1.873 5.764c-23.207-.718-45.204 13.873-52.747 37.089l-6.091 18.746c-4.434 13.643-3.288 28.195 3.224 40.978 4.176 8.193 10.236 15.031 17.644 20.052l-1.867 5.745c-6.795 20.909-1.358 43.556 14.188 59.103 5.117 5.117 11.009 9.125 17.35 11.975-3.457 6.036-5.865 12.749-6.998 19.901-3.438 21.716 5.475 43.232 23.262 56.155l4.886 3.551c-3.041 8.415-3.925 17.51-2.486 26.592 2.244 14.169 9.871 26.615 21.476 35.046l15.948 11.588c11.605 8.431 25.804 11.837 39.968 9.595 9.083-1.438 17.458-5.09 24.521-10.583l4.888 3.552c10.172 7.391 22.118 11.152 34.147 11.152 9.006-.001 18.06-2.109 26.446-6.382 6.449-3.286 12.088-7.648 16.759-12.799 4.671 5.15 10.309 9.512 16.758 12.798 8.389 4.274 17.438 6.383 26.447 6.383 12.027-.001 23.978-3.763 34.147-11.152l4.903-3.562c18.392 14.246 44.726 15.347 64.474.998l15.946-11.586c11.605-8.432 19.233-20.879 21.478-35.047 1.438-9.083.554-18.176-2.487-26.591l4.889-3.552c17.786-12.923 26.698-34.44 23.259-56.155-1.133-7.152-3.54-13.865-6.998-19.902 6.341-2.851 12.234-6.858 17.352-11.975 15.546-15.547 20.981-38.192 14.188-59.101l-1.873-5.766c19.231-13.09 28.414-37.794 20.872-61.009zm-345.941-107.156c4.906-9.629 14.287-15.378 25.095-15.378h18.931c8.284 0 15-6.716 15-15 0-13.07 10.634-23.704 23.704-23.704h19.712c13.07 0 23.704 10.634 23.704 23.704 0 8.284 6.716 15 15 15h18.93c10.808 0 20.188 5.749 25.095 15.379 4.89 9.598 4.045 20.526-2.251 29.254-.021.029-.044.057-.065.086l-59.23 81.524c-5.074-2.317-10.44-4.101-16.04-5.242v-77.585c0-8.284-6.716-15-15-15s-15 6.716-15 15v77.585c-5.6 1.141-10.965 2.926-16.038 5.242l-59.232-81.526c-.018-.025-.038-.049-.056-.074-6.304-8.731-7.151-19.664-2.259-29.265zm92.585 224.114c-24.813 0-45-20.187-45-45s20.187-45 45-45 45 20.187 45 45-20.187 45-45 45zm-209.605-77.819c-6.021-1.957-10.921-6.142-13.796-11.783-2.874-5.642-3.38-12.064-1.423-18.087l6.091-18.746c1.957-6.022 6.142-10.921 11.782-13.796 5.642-2.875 12.064-3.38 18.087-1.423 3.781 1.229 7.899.906 11.445-.9 3.545-1.806 6.227-4.946 7.456-8.729l5.85-18.004c3.34-10.278 11.706-17.424 22.38-19.115 10.631-1.683 20.765 2.492 27.123 11.174.021.03.041.06.063.09l.005-.003c.001.001.001.002.002.002l59.239 81.537c-3.796 4.145-7.12 8.724-9.918 13.641l-73.828-23.988c-7.88-2.564-16.341 1.752-18.9 9.631-2.561 7.879 1.752 16.341 9.631 18.9l73.805 23.98c-.312 2.772-.488 5.585-.488 8.439s.176 5.668.488 8.44l-95.821 31.135c-.002.001-.004.001-.006.002l-.001-.003c-.019.006-.036.013-.055.019-10.26 3.307-20.931.736-28.558-6.889-7.642-7.643-10.21-18.341-6.87-28.619l5.85-18.004c2.558-7.88-1.754-16.342-9.633-18.901zm179.226 232.147c-9.629 4.904-20.598 4.042-29.341-2.311l-15.315-11.127c-6.702-4.869-16.083-3.384-20.951 3.318-7.686 10.574-22.539 12.927-33.11 5.245l-15.948-11.588c-5.122-3.721-8.488-9.215-9.479-15.468-.991-6.254.514-12.52 4.235-17.643 4.869-6.702 3.383-16.082-3.319-20.951l-15.314-11.125c-8.743-6.353-12.954-16.518-11.264-27.191 1.688-10.656 8.815-19.012 19.066-22.363.018-.006.037-.011.055-.017l95.844-31.142c2.797 4.915 6.12 9.492 9.914 13.636l-45.632 62.807c-4.869 6.702-3.383 16.082 3.319 20.952 2.662 1.934 5.747 2.865 8.804 2.865 4.639 0 9.213-2.145 12.148-6.185l45.622-62.793c5.075 2.318 10.442 4.103 16.043 5.244v100.741h-.001v.019c-.005 10.8-5.753 20.174-15.376 25.077zm199.3-81.649-15.315 11.127c-3.219 2.339-5.377 5.86-5.999 9.789-.622 3.93.342 7.945 2.681 11.164 3.722 5.122 5.226 11.387 4.235 17.641-.99 6.253-4.357 11.746-9.48 15.469l-15.947 11.587c-5.121 3.721-11.38 5.227-17.641 4.234-6.253-.99-11.747-4.356-15.468-9.479-2.338-3.219-5.859-5.377-9.789-5.999-3.927-.622-7.944.343-11.164 2.681l-15.313 11.126c-8.743 6.354-19.712 7.217-29.343 2.31-9.623-4.903-15.37-14.276-15.377-25.075 0-.007 0-.013 0-.019v-100.744c5.602-1.142 10.968-2.926 16.043-5.244l45.621 62.793c2.936 4.04 7.51 6.185 12.148 6.185 3.057 0 6.142-.932 8.804-2.865 6.702-4.87 8.188-14.25 3.319-20.952l-45.631-62.807c3.794-4.144 7.117-8.72 9.914-13.635l95.846 31.142c.009.003.018.005.027.008 10.266 3.345 17.403 11.706 19.093 22.373 1.689 10.672-2.522 20.838-11.264 27.19zm40.684-150.497c-7.879 2.56-12.191 11.021-9.631 18.9l5.85 18.005c3.34 10.277.771 20.976-6.87 28.617-7.634 7.633-18.315 10.202-28.587 6.88-.009-.003-.018-.006-.027-.009v.001c-.001 0-.003-.001-.005-.001l-95.821-31.134c.312-2.773.488-5.586.488-8.441 0-2.854-.176-5.667-.488-8.439l73.805-23.981c7.878-2.56 12.19-11.022 9.63-18.901s-11.022-12.193-18.901-9.63l-73.827 23.988c-2.798-4.917-6.122-9.495-9.918-13.64l59.239-81.536s.001-.001.001-.002l.004.003c.019-.026.036-.052.054-.078 6.356-8.689 16.493-12.874 27.132-11.186 10.675 1.69 19.041 8.836 22.381 19.115l5.85 18.003c2.56 7.879 11.024 12.191 18.9 9.63 12.432-4.038 25.832 2.79 29.87 15.221l6.092 18.746c4.037 12.43-2.79 25.829-15.221 29.869z"/></g></svg>