<?xml version="1.0" encoding="iso-8859-1"?>
<!-- Generator: Adobe Illustrator 19.0.0, SVG Export Plug-In . SVG Version: 6.00 Build 0)  -->
<svg version="1.1" id="Capa_1" xmlns="http://www.w3.org/2000/svg" xmlns:xlink="http://www.w3.org/1999/xlink" x="0px" y="0px"
	 viewBox="0 0 496 496" style="enable-background:new 0 0 496 496;" xml:space="preserve">
<g>
	<g>
		<g>
			<path d="M480,94.056C480,42.192,437.808,0,385.944,0c-22.72,0-43.936,8.264-60.48,22.176c-3.264-2.096-6.776-4.064-10.8-5.728
				c-19.672-8.136-33.664-5.08-43.216,1C263.368,5.912,250.144,0,232,0c-18.144,0-31.368,5.904-39.448,17.448
				c-9.552-6.088-23.544-9.136-43.216-1s-27.4,20.2-29.848,31.264c-13.888-2.456-27.4,2.728-40.224,15.552
				C66.448,76.08,61.272,89.6,63.712,103.472c-11.048,2.448-23.12,10.208-31.264,29.864c-8.152,19.672-5.096,33.664,1,43.216
				C21.904,184.632,16,197.856,16,216c0,17.016,5.184,29.816,15.432,38.032c0.632,0.512,1.4,0.864,2.064,1.336
				c-6.128,9.56-9.224,23.576-1.048,43.296c8.144,19.672,20.2,27.384,31.272,29.824c-2.448,13.88,2.72,27.416,15.552,40.248
				c10.792,10.792,22.072,16.216,33.64,16.216c2.184,0,4.392-0.248,6.592-0.64c2.456,11.064,10.192,23.104,29.832,31.24
				c8.488,3.512,15.92,4.944,22.4,4.944c8.528,0,15.392-2.48,20.824-5.944c2.128,3.032,4.608,5.664,7.448,7.912V496h16v-65.904
				C220.84,431.312,226.136,432,232,432s11.16-0.688,16-1.904V496h16v-73.528c2.832-2.24,5.32-4.88,7.448-7.912
				c5.432,3.464,12.296,5.952,20.824,5.952c6.48,0,13.904-1.44,22.4-4.952c19.656-8.136,27.384-20.176,29.84-31.24
				c2.208,0.392,4.408,0.64,6.592,0.64c11.568,0,22.848-5.432,33.64-16.216c12.832-12.832,18-26.36,15.552-40.248
				c11.072-2.448,23.12-10.16,31.272-29.824c8.168-19.72,5.08-33.736-1.04-43.288c0.592-0.416,1.272-0.728,1.84-1.176
				C442.736,245.992,448,233.144,448,216c0-17.896-6.144-31.192-17.44-39.216C460.448,160.632,480,129.104,480,94.056z
				 M278.064,32.368c5.56-4.496,14.488-7.76,30.472-1.144c1.92,0.8,3.624,1.688,5.288,2.584
				c-8.56,10.224-15.072,22.32-18.704,35.792l-12.552,46.624c-5.352-2.728-10.88-5-16.56-6.824
				C271.768,95.344,284.648,59.36,278.064,32.368z M205.024,27.432C209.928,19.744,218.76,16,232,16s22.072,3.744,26.976,11.432
				c12.368,19.376-1.024,60.392-8.68,78.144C244.272,104.568,238.16,104,232,104c-6.24,0-12.312,0.64-18.272,1.624
				C206.072,87.896,192.648,46.824,205.024,27.432z M155.464,31.224c15.968-6.624,24.904-3.344,30.464,1.144
				c-6.568,26.952,6.256,62.856,12.032,76.96c-6,1.92-11.76,4.376-17.28,7.232c-5.864-14.008-22.208-48.552-45.952-62.984
				C135.48,46.48,139.48,37.84,155.464,31.224z M90.576,74.576c9.368-9.36,18.256-12.936,27.152-10.992
				c22.472,4.968,42.032,43.528,49.152,61.464c-9.96,7.152-18.688,15.88-25.84,25.84c-17.928-7.096-56.48-26.624-61.464-49.144
				C77.616,92.832,81.208,83.944,90.576,74.576z M47.224,139.464c6.616-15.976,15.288-19.944,22.36-20.72
				c14.44,23.736,48.968,40.072,62.976,45.936c-2.856,5.52-5.312,11.28-7.232,17.28c-14.104-5.768-50.008-18.584-76.96-12.024
				C43.88,164.376,40.6,155.456,47.224,139.464z M47.224,292.544c-6.64-16.032-3.328-24.976,1.184-30.528
				c5,1.248,10.432,1.992,16.496,1.992c7.936,0,16.768-1.072,26.464-3.208l-3.456-15.624c-15.016,3.328-35.248,5.408-46.472-3.616
				C35.096,236.456,32,228.096,32,216c0-13.24,3.744-22.072,11.432-26.976c19.408-12.392,60.464,1.048,78.2,8.704
				C120.64,203.688,120,209.768,120,216s0.64,12.296,1.624,18.256c-3.328,1.416-9.184,3.768-16.408,6.136l4.984,15.2
				c6.184-2.024,11.408-4.032,15.136-5.552c1.92,6,4.376,11.76,7.232,17.28c-14.008,5.864-48.528,22.2-62.976,45.928
				C62.48,312.472,53.848,308.552,47.224,292.544z M117.744,368.416c-8.888,1.952-17.8-1.624-27.168-10.992
				c-9.36-9.368-12.96-18.248-10.992-27.16c4.968-22.472,43.528-42.032,61.464-49.152c7.152,9.96,15.88,18.688,25.84,25.84
				C159.792,324.88,140.264,363.432,117.744,368.416z M185.928,399.632c-5.552,4.488-14.488,7.768-30.464,1.144
				c-15.976-6.616-19.976-15.248-20.736-22.352c23.744-14.432,40.08-48.976,45.952-62.984c5.52,2.856,11.272,5.312,17.28,7.232
				C192.184,336.776,179.36,372.68,185.928,399.632z M258.976,404.576C254.072,412.256,245.24,416,232,416
				s-22.072-3.744-26.976-11.432c-12.376-19.392,1.048-60.472,8.704-78.2C219.688,327.36,225.76,328,232,328
				c6.232,0,12.312-0.64,18.272-1.624C257.928,344.104,271.352,385.176,258.976,404.576z M256,308.84V304h-16v7.592
				c-2.648,0.224-5.304,0.408-8,0.408c-2.704,0-5.352-0.184-8-0.408V304h-16v4.84c-14.776-3.824-28.16-11.048-39.288-20.84H176v-16
				h-16v7.288c-6.12-6.952-11.24-14.776-15.16-23.288H160v-16h-16v14.256c-4.104-9.4-6.712-19.584-7.592-30.256H144v-16h-7.592
				c0.888-10.672,3.488-20.856,7.592-30.256V192h16v-16h-15.16c3.92-8.512,9.04-16.336,15.16-23.288V160h16v-16h-7.288
				c11.128-9.792,24.512-17.016,39.288-20.84V128h16v-7.592c2.648-0.224,5.296-0.408,8-0.408c2.68,0,5.344,0.144,8,0.368V128h16
				v-4.864c7.744,2.016,15.24,4.984,22.32,8.904L272,155.504V144h-16v16h14.792l-18.128,67.336L288,217.824V224h16v-10.48l16-4.304
				V224h7.592c-0.888,10.672-3.488,20.856-7.592,30.256V240h-16v16h15.16c-3.92,8.512-9.04,16.336-15.16,23.288V272h-16v16h7.288
				C284.16,297.792,270.776,305.016,256,308.84z M324.488,208l3.056-0.824c0.024,0.272,0.04,0.552,0.064,0.824H324.488z
				 M308.536,400.776c-15.968,6.616-24.904,3.344-30.464-1.136c6.568-26.952-6.256-62.856-12.032-76.96
				c6-1.92,11.76-4.376,17.28-7.232c5.864,14.008,22.208,48.552,45.952,62.984C328.52,385.52,324.52,394.16,308.536,400.776z
				 M373.424,357.424c-9.368,9.36-18.232,12.952-27.16,10.992c-22.472-4.968-42.032-43.528-49.152-61.464
				c9.96-7.152,18.688-15.88,25.84-25.84c17.928,7.096,56.48,26.624,61.464,49.144C386.384,339.168,382.792,348.056,373.424,357.424
				z M432,216c0,12.168-3.136,20.56-9.568,25.656c-11.656,9.224-32.856,6.736-48.592,3l-3.688,15.568
				c10.68,2.528,20.336,3.792,28.936,3.792c6.064,0,11.504-0.744,16.512-1.992c4.504,5.544,7.824,14.48,1.176,30.512
				c-6.616,15.976-15.28,19.952-22.36,20.72c-14.44-23.736-48.968-40.072-62.976-45.936c2.856-5.52,5.312-11.272,7.232-17.28
				c3.72,1.52,8.952,3.528,15.136,5.552l4.984-15.2c-7.224-2.368-13.08-4.728-16.408-6.136C343.36,228.296,344,222.232,344,216
				c0-4.272-0.368-8.608-0.904-13.008l66.608-17.928C424.848,188.032,432,197.864,432,216z M406.24,169.424l-130.904,35.24
				l35.24-130.904C319.736,39.752,350.728,16,385.944,16C428.984,16,464,51.016,464,94.056
				C464,129.272,440.248,160.264,406.24,169.424z"/>
			<rect x="192" y="144" width="16" height="16"/>
			<rect x="224" y="144" width="16" height="16"/>
			<rect x="176" y="176" width="16" height="16"/>
			<rect x="208" y="176" width="16" height="16"/>
			<rect x="240" y="176" width="16" height="16"/>
			<rect x="160" y="208" width="16" height="16"/>
			<rect x="192" y="208" width="16" height="16"/>
			<rect x="224" y="208" width="16" height="16"/>
			<rect x="176" y="240" width="16" height="16"/>
			<rect x="208" y="240" width="16" height="16"/>
			<rect x="240" y="240" width="16" height="16"/>
			<rect x="272" y="240" width="16" height="16"/>
			<rect x="192" y="272" width="16" height="16"/>
			<rect x="224" y="272" width="16" height="16"/>
			<rect x="256" y="272" width="16" height="16"/>
			<path d="M336,67.472v57.064l48,28.8l48-28.8V67.472l-48-28.8L336,67.472z M416,115.472l-32,19.2l-32-19.2V76.536l32-19.2l32,19.2
				V115.472z"/>
		</g>
	</g>
</g>
<g>
</g>
<g>
</g>
<g>
</g>
<g>
</g>
<g>
</g>
<g>
</g>
<g>
</g>
<g>
</g>
<g>
</g>
<g>
</g>
<g>
</g>
<g>
</g>
<g>
</g>
<g>
</g>
<g>
</g>
</svg>
